<?xml version="1.0" encoding="UTF-8" standalone="no"?>
<!DOCTYPE svg PUBLIC "-//W3C//DTD SVG 1.1//EN" "http://www.w3.org/Graphics/SVG/1.1/DTD/svg11.dtd">
<svg width="100%" height="100%" viewBox="0 0 2417 430" version="1.1" xmlns="http://www.w3.org/2000/svg" xmlns:xlink="http://www.w3.org/1999/xlink" xml:space="preserve" xmlns:serif="http://www.serif.com/" style="fill-rule:evenodd;clip-rule:evenodd;stroke-linejoin:round;stroke-miterlimit:2;">
    <g transform="matrix(4.16667,0,0,4.16667,0,0)">
        <path d="M127.722,25.538L155.455,25.538L155.455,31.115L134.445,31.115L134.445,48.229L153.851,48.229L153.851,53.73L134.445,53.73L134.445,77.032L127.722,77.032L127.722,25.538Z" style="fill:white;fill-rule:nonzero;"/>
        <path d="M184.64,58.161C177.306,58.008 168.978,59.307 168.978,66.489C168.978,70.92 171.881,72.907 175.243,72.907C180.132,72.907 183.265,69.85 184.335,66.718C184.564,65.954 184.64,65.19 184.64,64.579L184.64,58.161ZM191.134,68.17C191.134,71.378 191.287,74.511 191.669,77.032L185.633,77.032L185.099,72.371L184.869,72.371C182.807,75.275 178.834,77.872 173.562,77.872C166.075,77.872 162.254,72.601 162.254,67.253C162.254,58.314 170.2,53.424 184.487,53.501L184.487,52.737C184.487,49.757 183.647,44.18 176.083,44.256C172.569,44.256 168.978,45.249 166.38,47.007L164.852,42.499C167.908,40.589 172.416,39.29 177.076,39.29C188.384,39.29 191.134,47.007 191.134,54.341L191.134,68.17Z" style="fill:white;fill-rule:nonzero;"/>
        <path d="M232.161,75.733C230.403,76.574 226.507,77.872 221.541,77.872C210.386,77.872 203.129,70.309 203.129,59.001C203.129,47.618 210.921,39.29 222.993,39.29C226.965,39.29 230.48,40.284 232.314,41.277L230.785,46.395C229.181,45.555 226.66,44.638 222.993,44.638C214.512,44.638 209.928,50.979 209.928,58.619C209.928,67.177 215.429,72.448 222.763,72.448C226.584,72.448 229.105,71.531 231.015,70.692L232.161,75.733Z" style="fill:white;fill-rule:nonzero;"/>
        <path d="M243.849,22.787L250.572,22.787L250.572,45.937L250.725,45.937C251.795,44.027 253.476,42.27 255.539,41.124C257.525,39.978 259.894,39.29 262.415,39.29C267.381,39.29 275.326,42.346 275.326,55.029L275.326,77.032L268.603,77.032L268.603,55.793C268.603,49.833 266.388,44.868 260.045,44.868C255.691,44.868 252.33,47.923 251.031,51.514C250.649,52.508 250.572,53.501 250.572,54.723L250.572,77.032L243.849,77.032L243.849,22.787Z" style="fill:white;fill-rule:nonzero;"/>
        <path d="M289.153,70.232C291.217,71.455 294.731,72.83 298.093,72.83C302.905,72.83 305.198,70.463 305.198,67.329C305.198,64.12 303.288,62.439 298.399,60.606C291.675,58.161 288.542,54.57 288.542,50.139C288.542,44.18 293.432,39.29 301.302,39.29C305.045,39.29 308.33,40.284 310.316,41.582L308.712,46.472C307.261,45.555 304.587,44.256 301.149,44.256C297.176,44.256 295.036,46.548 295.036,49.299C295.036,52.355 297.176,53.73 301.989,55.64C308.33,58.008 311.691,61.217 311.691,66.718C311.691,73.288 306.573,77.872 297.94,77.872C293.891,77.872 290.147,76.803 287.549,75.275L289.153,70.232Z" style="fill:white;fill-rule:nonzero;"/>
        <path d="M350.503,75.733C348.746,76.574 344.85,77.872 339.883,77.872C328.729,77.872 321.471,70.309 321.471,59.001C321.471,47.618 329.264,39.29 341.335,39.29C345.308,39.29 348.822,40.284 350.655,41.277L349.128,46.395C347.524,45.555 345.002,44.638 341.335,44.638C332.855,44.638 328.271,50.979 328.271,58.619C328.271,67.177 333.772,72.448 341.106,72.448C344.926,72.448 347.447,71.531 349.357,70.692L350.503,75.733Z" style="fill:white;fill-rule:nonzero;"/>
        <path d="M362.191,22.787L368.915,22.787L368.915,45.937L369.067,45.937C370.137,44.027 371.818,42.27 373.881,41.124C375.867,39.978 378.235,39.29 380.757,39.29C385.723,39.29 393.669,42.346 393.669,55.029L393.669,77.032L386.945,77.032L386.945,55.793C386.945,49.833 384.73,44.868 378.389,44.868C374.033,44.868 370.672,47.923 369.373,51.514C368.991,52.508 368.915,53.501 368.915,54.723L368.915,77.032L362.191,77.032L362.191,22.787Z" style="fill:white;fill-rule:nonzero;"/>
        <path d="M427.896,58.161C420.561,58.008 412.233,59.307 412.233,66.489C412.233,70.92 415.137,72.907 418.498,72.907C423.388,72.907 426.521,69.85 427.59,66.718C427.819,65.954 427.896,65.19 427.896,64.579L427.896,58.161ZM434.39,68.17C434.39,71.378 434.542,74.511 434.924,77.032L428.889,77.032L428.354,72.371L428.125,72.371C426.062,75.275 422.089,77.872 416.817,77.872C409.33,77.872 405.51,72.601 405.51,67.253C405.51,58.314 413.456,53.424 427.742,53.501L427.742,52.737C427.742,49.757 426.902,44.18 419.339,44.256C415.824,44.256 412.233,45.249 409.636,47.007L408.108,42.499C411.164,40.589 415.671,39.29 420.332,39.29C431.639,39.29 434.39,47.007 434.39,54.341L434.39,68.17Z" style="fill:white;fill-rule:nonzero;"/>
        <path d="M449.745,77.032L449.745,45.173L444.627,45.173L444.627,40.054L449.745,40.054L449.745,38.297C449.745,33.101 450.968,28.365 454.024,25.385C456.545,22.94 459.906,21.947 463.039,21.947C465.484,21.947 467.471,22.482 468.77,23.017L467.853,28.212C466.859,27.754 465.561,27.371 463.574,27.371C457.844,27.371 456.393,32.338 456.393,38.068L456.393,40.054L465.331,40.054L465.331,45.173L456.393,45.173L456.393,77.032L449.745,77.032Z" style="fill:white;fill-rule:nonzero;"/>
        <path d="M484.124,29.491L484.124,40.054L493.75,40.054L493.75,45.173L484.124,45.173L484.124,65.114C484.124,69.698 485.423,72.295 489.166,72.295C491,72.295 492.069,72.142 493.063,71.837L493.368,76.956C492.069,77.414 490.007,77.872 487.409,77.872C484.276,77.872 481.756,76.803 480.151,75.046C478.317,72.983 477.554,69.698 477.554,65.343L477.554,45.173L471.823,45.173L471.823,40.054L477.554,40.054L477.554,31.194L484.124,29.491Z" style="fill:white;fill-rule:nonzero;"/>
        <rect x="525.303" y="25.538" width="6.722" height="51.494" style="fill:rgb(221,62,98);fill-rule:nonzero;"/>
        <path d="M557.237,31.192L541.575,31.192L541.575,25.538L579.699,25.538L579.699,31.192L563.96,31.192L563.96,77.032L557.237,77.032L557.237,31.192Z" style="fill:rgb(221,62,98);fill-rule:nonzero;"/>
        <path d="M128.348,90.75L128.348,94.614L132.74,94.614L132.74,90.75L133.926,90.75L133.926,99.986L132.74,99.986L132.74,95.655L128.348,95.655L128.348,99.986L127.163,99.986L127.163,90.75L128.348,90.75Z" style="fill:white;fill-rule:nonzero;"/>
        <path d="M139.416,96.683C139.416,98.136 140.225,99.232 141.383,99.232C142.515,99.232 143.364,98.15 143.364,96.656C143.364,95.532 142.812,94.121 141.41,94.121C140.023,94.121 139.416,95.436 139.416,96.683ZM144.576,96.615C144.576,99.068 142.892,100.136 141.329,100.136C139.578,100.136 138.204,98.821 138.204,96.724C138.204,94.518 139.645,93.216 141.437,93.216C143.31,93.216 144.576,94.6 144.576,96.615Z" style="fill:white;fill-rule:nonzero;"/>
        <path d="M153.474,99.753C153.165,99.903 152.477,100.136 151.602,100.136C149.634,100.136 148.355,98.779 148.355,96.752C148.355,94.71 149.729,93.216 151.858,93.216C152.558,93.216 153.178,93.395 153.501,93.573L153.232,94.491C152.949,94.34 152.504,94.176 151.858,94.176C150.362,94.176 149.553,95.313 149.553,96.683C149.553,98.218 150.524,99.163 151.817,99.163C152.491,99.163 152.935,98.999 153.272,98.848L153.474,99.753Z" style="fill:white;fill-rule:nonzero;"/>
        <path d="M157.615,90.257L158.801,90.257L158.801,94.409L158.828,94.409C159.017,94.066 159.313,93.751 159.677,93.546C160.027,93.34 160.445,93.216 160.89,93.216C161.765,93.216 163.167,93.765 163.167,96.039L163.167,99.986L161.981,99.986L161.981,96.176C161.981,95.108 161.59,94.217 160.472,94.217C159.704,94.217 159.111,94.765 158.882,95.409C158.815,95.587 158.801,95.765 158.801,95.985L158.801,99.986L157.615,99.986L157.615,90.257Z" style="fill:white;fill-rule:nonzero;"/>
        <path d="M167.686,98.766C168.049,98.986 168.67,99.232 169.262,99.232C170.111,99.232 170.515,98.807 170.515,98.245C170.515,97.67 170.178,97.368 169.316,97.04C168.13,96.601 167.578,95.957 167.578,95.162C167.578,94.093 168.44,93.216 169.828,93.216C170.488,93.216 171.067,93.395 171.418,93.628L171.135,94.505C170.879,94.34 170.407,94.107 169.801,94.107C169.101,94.107 168.723,94.518 168.723,95.011C168.723,95.56 169.101,95.806 169.949,96.149C171.067,96.573 171.66,97.149 171.66,98.136C171.66,99.315 170.758,100.136 169.235,100.136C168.521,100.136 167.861,99.945 167.403,99.671L167.686,98.766Z" style="fill:white;fill-rule:nonzero;"/>
        <path d="M180.584,99.753C180.275,99.903 179.587,100.136 178.712,100.136C176.744,100.136 175.464,98.779 175.464,96.752C175.464,94.71 176.838,93.216 178.967,93.216C179.668,93.216 180.288,93.395 180.611,93.573L180.341,94.491C180.059,94.34 179.614,94.176 178.967,94.176C177.472,94.176 176.663,95.313 176.663,96.683C176.663,98.218 177.633,99.163 178.927,99.163C179.601,99.163 180.045,98.999 180.382,98.848L180.584,99.753Z" style="fill:white;fill-rule:nonzero;"/>
        <path d="M184.725,90.257L185.911,90.257L185.911,94.409L185.938,94.409C186.126,94.066 186.422,93.751 186.786,93.546C187.137,93.34 187.554,93.216 187.999,93.216C188.875,93.216 190.276,93.765 190.276,96.039L190.276,99.986L189.09,99.986L189.09,96.176C189.09,95.108 188.7,94.217 187.581,94.217C186.813,94.217 186.22,94.765 185.991,95.409C185.924,95.587 185.911,95.765 185.911,95.985L185.911,99.986L184.725,99.986L184.725,90.257Z" style="fill:white;fill-rule:nonzero;"/>
        <path d="M200.414,98.163C200.414,98.862 200.427,99.466 200.467,99.986L199.417,99.986L199.349,98.903L199.322,98.903C199.026,99.438 198.325,100.136 197.167,100.136C196.143,100.136 194.917,99.547 194.917,97.231L194.917,93.354L196.102,93.354L196.102,97.012C196.102,98.273 196.493,99.136 197.557,99.136C198.352,99.136 198.904,98.574 199.12,98.026C199.188,97.861 199.228,97.642 199.228,97.409L199.228,93.354L200.414,93.354L200.414,98.163Z" style="fill:white;fill-rule:nonzero;"/>
        <rect x="205.135" y="90.257" width="1.186" height="9.729" style="fill:white;fill-rule:nonzero;"/>
        <path d="M215.203,96.026C215.216,95.272 214.893,94.08 213.559,94.08C212.346,94.08 211.834,95.19 211.74,96.026L215.203,96.026ZM211.726,96.889C211.754,98.519 212.764,99.191 213.963,99.191C214.812,99.191 215.337,99.04 215.769,98.848L215.984,99.712C215.566,99.903 214.839,100.136 213.801,100.136C211.794,100.136 210.595,98.779 210.595,96.779C210.595,94.778 211.754,93.216 213.653,93.216C215.796,93.216 216.348,95.108 216.348,96.327C216.348,96.573 216.335,96.752 216.307,96.889L211.726,96.889Z" style="fill:white;fill-rule:nonzero;"/>
        <path d="M230.907,95.655L227.391,95.655L227.391,98.986L231.325,98.986L231.325,99.986L226.205,99.986L226.205,90.75L231.123,90.75L231.123,91.75L227.391,91.75L227.391,94.669L230.907,94.669L230.907,95.655Z" style="fill:white;fill-rule:nonzero;"/>
        <path d="M235.399,98.766C235.762,98.986 236.382,99.232 236.975,99.232C237.824,99.232 238.228,98.807 238.228,98.245C238.228,97.67 237.891,97.368 237.029,97.04C235.843,96.601 235.291,95.957 235.291,95.162C235.291,94.093 236.153,93.216 237.541,93.216C238.201,93.216 238.78,93.395 239.131,93.628L238.848,94.505C238.592,94.34 238.12,94.107 237.514,94.107C236.814,94.107 236.436,94.518 236.436,95.011C236.436,95.56 236.814,95.806 237.662,96.149C238.78,96.573 239.373,97.149 239.373,98.136C239.373,99.315 238.471,100.136 236.948,100.136C236.234,100.136 235.574,99.945 235.116,99.671L235.399,98.766Z" style="fill:white;fill-rule:nonzero;"/>
        <path d="M243.487,98.766C243.851,98.986 244.471,99.232 245.064,99.232C245.912,99.232 246.316,98.807 246.316,98.245C246.316,97.67 245.98,97.368 245.117,97.04C243.932,96.601 243.379,95.957 243.379,95.162C243.379,94.093 244.241,93.216 245.629,93.216C246.29,93.216 246.869,93.395 247.219,93.628L246.936,94.505C246.68,94.34 246.209,94.107 245.602,94.107C244.902,94.107 244.525,94.518 244.525,95.011C244.525,95.56 244.902,95.806 245.751,96.149C246.869,96.573 247.462,97.149 247.462,98.136C247.462,99.315 246.559,100.136 245.037,100.136C244.322,100.136 243.662,99.945 243.204,99.671L243.487,98.766Z" style="fill:white;fill-rule:nonzero;"/>
        <rect x="251.737" y="90.257" width="1.186" height="9.729" style="fill:white;fill-rule:nonzero;"/>
        <path d="M257.669,99.986L257.669,93.354L258.855,93.354L258.855,99.986L257.669,99.986ZM258.989,91.49C258.989,91.901 258.706,92.23 258.234,92.23C257.803,92.23 257.521,91.901 257.521,91.49C257.521,91.079 257.816,90.736 258.26,90.736C258.691,90.736 258.989,91.066 258.989,91.49Z" style="fill:white;fill-rule:nonzero;"/>
        <path d="M263.573,95.149C263.573,94.45 263.56,93.902 263.52,93.354L264.57,93.354L264.638,94.45L264.665,94.45C264.988,93.833 265.743,93.216 266.82,93.216C267.723,93.216 269.125,93.765 269.125,96.039L269.125,99.986L267.939,99.986L267.939,96.163C267.939,95.094 267.548,94.203 266.43,94.203C265.662,94.203 265.056,94.765 264.84,95.436C264.786,95.587 264.759,95.793 264.759,95.998L264.759,99.986L263.573,99.986L263.573,95.149Z" style="fill:white;fill-rule:nonzero;"/>
        <path d="M278.197,95.971C278.197,95.765 278.184,95.587 278.13,95.436C277.914,94.724 277.348,94.148 276.473,94.148C275.341,94.148 274.532,95.121 274.532,96.656C274.532,97.958 275.192,99.04 276.459,99.04C277.2,99.04 277.86,98.574 278.103,97.807C278.17,97.601 278.197,97.368 278.197,97.163L278.197,95.971ZM279.383,99.013C279.383,100.547 279.072,101.465 278.453,102.054C277.807,102.643 276.89,102.849 276.068,102.849C275.287,102.849 274.425,102.657 273.899,102.301L274.195,101.369C274.627,101.658 275.3,101.904 276.108,101.904C277.321,101.904 278.21,101.26 278.21,99.574L278.21,98.848L278.184,98.848C277.833,99.466 277.119,99.958 276.108,99.958C274.492,99.958 273.333,98.561 273.333,96.724C273.333,94.477 274.775,93.216 276.284,93.216C277.415,93.216 278.022,93.806 278.318,94.354L278.345,94.354L278.386,93.354L279.437,93.354C279.397,93.82 279.383,94.367 279.383,95.162L279.383,99.013Z" style="fill:white;fill-rule:nonzero;"/>
        <path d="M288.227,96.026C288.24,95.272 287.917,94.08 286.583,94.08C285.37,94.08 284.858,95.19 284.764,96.026L288.227,96.026ZM284.75,96.889C284.777,98.519 285.788,99.191 286.987,99.191C287.836,99.191 288.361,99.04 288.793,98.848L289.008,99.712C288.591,99.903 287.863,100.136 286.825,100.136C284.817,100.136 283.619,98.779 283.619,96.779C283.619,94.778 284.777,93.216 286.677,93.216C288.819,93.216 289.372,95.108 289.372,96.327C289.372,96.573 289.358,96.752 289.331,96.889L284.75,96.889Z" style="fill:white;fill-rule:nonzero;"/>
        <path d="M293.594,95.149C293.594,94.45 293.581,93.902 293.54,93.354L294.591,93.354L294.658,94.45L294.686,94.45C295.009,93.833 295.764,93.216 296.841,93.216C297.744,93.216 299.146,93.765 299.146,96.039L299.146,99.986L297.96,99.986L297.96,96.163C297.96,95.094 297.568,94.203 296.45,94.203C295.683,94.203 295.076,94.765 294.86,95.436C294.807,95.587 294.78,95.793 294.78,95.998L294.78,99.986L293.594,99.986L293.594,95.149Z" style="fill:white;fill-rule:nonzero;"/>
        <rect x="308.855" y="96.094" width="12.665" height="0.822" style="fill:white;fill-rule:nonzero;"/>
        <path d="M332.485,90.75L332.485,96.231C332.485,98.287 333.389,99.163 334.601,99.163C335.935,99.163 336.811,98.259 336.811,96.231L336.811,90.75L337.996,90.75L337.996,96.149C337.996,98.986 336.527,100.136 334.561,100.136C332.701,100.136 331.3,99.068 331.3,96.19L331.3,90.75L332.485,90.75Z" style="fill:rgb(221,62,98);fill-rule:nonzero;"/>
        <path d="M342.744,95.149C342.744,94.45 342.732,93.902 342.691,93.354L343.741,93.354L343.809,94.45L343.836,94.45C344.159,93.833 344.914,93.216 345.991,93.216C346.895,93.216 348.296,93.765 348.296,96.039L348.296,99.986L347.11,99.986L347.11,96.163C347.11,95.094 346.719,94.203 345.601,94.203C344.833,94.203 344.227,94.765 344.011,95.436C343.957,95.587 343.931,95.793 343.931,95.998L343.931,99.986L342.744,99.986L342.744,95.149Z" style="fill:rgb(221,62,98);fill-rule:nonzero;"/>
        <path d="M352.977,99.986L352.977,93.354L354.162,93.354L354.162,99.986L352.977,99.986ZM354.297,91.49C354.297,91.901 354.014,92.23 353.542,92.23C353.111,92.23 352.828,91.901 352.828,91.49C352.828,91.079 353.124,90.736 353.569,90.736C354,90.736 354.297,91.066 354.297,91.49Z" style="fill:rgb(221,62,98);fill-rule:nonzero;"/>
        <path d="M359.339,93.354L360.619,97.067C360.835,97.684 361.01,98.232 361.145,98.779L361.185,98.779C361.333,98.232 361.522,97.684 361.737,97.067L363.004,93.354L364.243,93.354L361.684,99.986L360.552,99.986L358.072,93.354L359.339,93.354Z" style="fill:rgb(221,62,98);fill-rule:nonzero;"/>
        <path d="M372.117,96.026C372.131,95.272 371.807,94.08 370.474,94.08C369.261,94.08 368.749,95.19 368.654,96.026L372.117,96.026ZM368.641,96.889C368.668,98.519 369.679,99.191 370.878,99.191C371.727,99.191 372.252,99.04 372.683,98.848L372.899,99.712C372.481,99.903 371.753,100.136 370.716,100.136C368.708,100.136 367.509,98.779 367.509,96.779C367.509,94.778 368.668,93.216 370.567,93.216C372.71,93.216 373.263,95.108 373.263,96.327C373.263,96.573 373.249,96.752 373.222,96.889L368.641,96.889Z" style="fill:rgb(221,62,98);fill-rule:nonzero;"/>
        <path d="M377.484,95.423C377.484,94.642 377.471,93.97 377.431,93.354L378.468,93.354L378.523,94.669L378.563,94.669C378.858,93.778 379.586,93.216 380.382,93.216C380.503,93.216 380.597,93.23 380.705,93.244L380.705,94.381C380.583,94.354 380.462,94.354 380.301,94.354C379.465,94.354 378.872,94.984 378.711,95.888C378.684,96.053 378.67,96.258 378.67,96.45L378.67,99.986L377.484,99.986L377.484,95.423Z" style="fill:rgb(221,62,98);fill-rule:nonzero;"/>
        <path d="M384.482,98.766C384.845,98.986 385.465,99.232 386.058,99.232C386.906,99.232 387.311,98.807 387.311,98.245C387.311,97.67 386.974,97.368 386.111,97.04C384.926,96.601 384.373,95.957 384.373,95.162C384.373,94.093 385.235,93.216 386.623,93.216C387.283,93.216 387.863,93.395 388.213,93.628L387.931,94.505C387.674,94.34 387.203,94.107 386.597,94.107C385.896,94.107 385.519,94.518 385.519,95.011C385.519,95.56 385.896,95.806 386.744,96.149C387.863,96.573 388.456,97.149 388.456,98.136C388.456,99.315 387.553,100.136 386.03,100.136C385.316,100.136 384.656,99.945 384.198,99.671L384.482,98.766Z" style="fill:rgb(221,62,98);fill-rule:nonzero;"/>
        <path d="M392.731,99.986L392.731,93.354L393.916,93.354L393.916,99.986L392.731,99.986ZM394.051,91.49C394.051,91.901 393.769,92.23 393.297,92.23C392.865,92.23 392.582,91.901 392.582,91.49C392.582,91.079 392.879,90.736 393.323,90.736C393.755,90.736 394.051,91.066 394.051,91.49Z" style="fill:rgb(221,62,98);fill-rule:nonzero;"/>
        <path d="M400.064,91.458L400.064,93.354L401.761,93.354L401.761,94.272L400.064,94.272L400.064,97.848C400.064,98.67 400.292,99.136 400.952,99.136C401.275,99.136 401.465,99.109 401.64,99.054L401.693,99.972C401.465,100.054 401.101,100.136 400.643,100.136C400.09,100.136 399.646,99.945 399.362,99.629C399.039,99.259 398.904,98.67 398.904,97.889L398.904,94.272L397.894,94.272L397.894,93.354L398.904,93.354L398.904,91.77L400.064,91.458Z" style="fill:rgb(221,62,98);fill-rule:nonzero;"/>
        <path d="M406.4,93.354L407.815,97.273C407.977,97.711 408.138,98.232 408.246,98.629L408.273,98.629C408.395,98.232 408.529,97.725 408.691,97.245L409.984,93.354L411.237,93.354L409.459,98.081C408.609,100.355 408.03,101.506 407.222,102.232C406.629,102.74 406.064,102.945 405.767,103L405.471,101.999C405.767,101.904 406.157,101.712 406.508,101.41C406.831,101.15 407.222,100.684 407.505,100.068C407.559,99.945 407.6,99.848 407.6,99.78C407.6,99.712 407.572,99.615 407.505,99.466L405.107,93.354L406.4,93.354Z" style="fill:rgb(221,62,98);fill-rule:nonzero;"/>
        <path d="M421.417,96.683C421.417,98.136 422.226,99.232 423.384,99.232C424.516,99.232 425.364,98.15 425.364,96.656C425.364,95.532 424.813,94.121 423.411,94.121C422.024,94.121 421.417,95.436 421.417,96.683ZM426.577,96.615C426.577,99.068 424.894,100.136 423.33,100.136C421.579,100.136 420.204,98.821 420.204,96.724C420.204,94.518 421.647,93.216 423.439,93.216C425.311,93.216 426.577,94.6 426.577,96.615Z" style="fill:rgb(221,62,98);fill-rule:nonzero;"/>
        <path d="M430.948,99.986L430.948,94.272L430.046,94.272L430.046,93.354L430.948,93.354L430.948,93.038C430.948,92.107 431.164,91.257 431.703,90.723C432.148,90.284 432.74,90.106 433.293,90.106C433.724,90.106 434.074,90.202 434.304,90.298L434.142,91.23C433.967,91.148 433.737,91.079 433.388,91.079C432.377,91.079 432.121,91.969 432.121,92.997L432.121,93.354L433.697,93.354L433.697,94.272L432.121,94.272L432.121,99.986L430.948,99.986Z" style="fill:rgb(221,62,98);fill-rule:nonzero;"/>
        <path d="M447.621,96.149L446.719,93.49C446.517,92.888 446.382,92.34 446.247,91.805L446.22,91.805C446.085,92.34 445.951,92.915 445.762,93.477L444.873,96.149L447.621,96.149ZM444.63,97.081L443.688,99.986L442.475,99.986L445.573,90.75L446.975,90.75L450.073,99.986L448.82,99.986L447.851,97.081L444.63,97.081Z" style="fill:rgb(221,62,98);fill-rule:nonzero;"/>
        <path d="M455.253,97.287C455.253,97.464 455.267,97.629 455.308,97.779C455.523,98.615 456.237,99.191 457.086,99.191C458.339,99.191 459.066,98.15 459.066,96.629C459.066,95.313 458.379,94.176 457.126,94.176C456.317,94.176 455.55,94.751 455.334,95.655C455.294,95.806 455.253,95.985 455.253,96.135L455.253,97.287ZM454.081,95.519C454.081,94.669 454.055,93.984 454.027,93.354L455.078,93.354L455.146,94.491L455.173,94.491C455.645,93.682 456.426,93.216 457.49,93.216C459.08,93.216 460.266,94.573 460.266,96.573C460.266,98.959 458.824,100.136 457.288,100.136C456.426,100.136 455.671,99.753 455.28,99.095L455.253,99.095L455.253,102.698L454.081,102.698L454.081,95.519Z" style="fill:rgb(221,62,98);fill-rule:nonzero;"/>
        <path d="M465.673,97.287C465.673,97.464 465.687,97.629 465.728,97.779C465.942,98.615 466.657,99.191 467.506,99.191C468.759,99.191 469.486,98.15 469.486,96.629C469.486,95.313 468.799,94.176 467.546,94.176C466.737,94.176 465.97,94.751 465.754,95.655C465.714,95.806 465.673,95.985 465.673,96.135L465.673,97.287ZM464.501,95.519C464.501,94.669 464.475,93.984 464.447,93.354L465.498,93.354L465.566,94.491L465.593,94.491C466.065,93.682 466.846,93.216 467.91,93.216C469.5,93.216 470.686,94.573 470.686,96.573C470.686,98.959 469.244,100.136 467.708,100.136C466.846,100.136 466.091,99.753 465.7,99.095L465.673,99.095L465.673,102.698L464.501,102.698L464.501,95.519Z" style="fill:rgb(221,62,98);fill-rule:nonzero;"/>
        <rect x="474.922" y="90.257" width="1.186" height="9.729" style="fill:rgb(221,62,98);fill-rule:nonzero;"/>
        <path d="M480.854,99.986L480.854,93.354L482.039,93.354L482.039,99.986L480.854,99.986ZM482.174,91.49C482.174,91.901 481.892,92.23 481.42,92.23C480.988,92.23 480.705,91.901 480.705,91.49C480.705,91.079 481.002,90.736 481.446,90.736C481.878,90.736 482.174,91.066 482.174,91.49Z" style="fill:rgb(221,62,98);fill-rule:nonzero;"/>
        <path d="M490.895,96.026C490.908,95.272 490.584,94.08 489.251,94.08C488.038,94.08 487.526,95.19 487.432,96.026L490.895,96.026ZM487.418,96.889C487.445,98.519 488.456,99.191 489.655,99.191C490.504,99.191 491.029,99.04 491.46,98.848L491.676,99.712C491.258,99.903 490.53,100.136 489.493,100.136C487.485,100.136 486.286,98.779 486.286,96.779C486.286,94.778 487.445,93.216 489.345,93.216C491.487,93.216 492.04,95.108 492.04,96.327C492.04,96.573 492.026,96.752 491.999,96.889L487.418,96.889Z" style="fill:rgb(221,62,98);fill-rule:nonzero;"/>
        <path d="M500.708,96.053C500.708,95.902 500.694,95.696 500.654,95.546C500.48,94.792 499.832,94.162 498.943,94.162C497.717,94.162 496.989,95.258 496.989,96.711C496.989,98.053 497.65,99.163 498.916,99.163C499.711,99.163 500.439,98.615 500.654,97.725C500.694,97.56 500.708,97.396 500.708,97.204L500.708,96.053ZM501.88,90.257L501.88,98.273C501.88,98.862 501.907,99.533 501.935,99.986L500.884,99.986L500.829,98.835L500.789,98.835C500.439,99.574 499.657,100.136 498.593,100.136C497.017,100.136 495.79,98.779 495.79,96.765C495.776,94.559 497.138,93.216 498.714,93.216C499.725,93.216 500.385,93.696 500.682,94.217L500.708,94.217L500.708,90.257L501.88,90.257Z" style="fill:rgb(221,62,98);fill-rule:nonzero;"/>
        <path d="M512.115,98.533C512.641,98.876 513.396,99.136 514.203,99.136C515.401,99.136 516.104,98.492 516.104,97.56C516.104,96.711 515.617,96.204 514.392,95.738C512.909,95.19 511.994,94.395 511.994,93.107C511.994,91.668 513.166,90.599 514.931,90.599C515.848,90.599 516.534,90.819 516.925,91.051L516.602,92.025C516.318,91.846 515.713,91.586 514.891,91.586C513.651,91.586 513.18,92.34 513.18,92.97C513.18,93.833 513.732,94.258 514.985,94.751C516.521,95.354 517.289,96.108 517.289,97.464C517.289,98.889 516.265,100.136 514.123,100.136C513.247,100.136 512.289,99.862 511.805,99.533L512.115,98.533Z" style="fill:rgb(221,62,98);fill-rule:nonzero;"/>
        <path d="M526.348,99.753C526.038,99.903 525.351,100.136 524.475,100.136C522.508,100.136 521.228,98.779 521.228,96.752C521.228,94.71 522.603,93.216 524.731,93.216C525.432,93.216 526.052,93.395 526.375,93.573L526.106,94.491C525.822,94.34 525.378,94.176 524.731,94.176C523.235,94.176 522.427,95.313 522.427,96.683C522.427,98.218 523.398,99.163 524.69,99.163C525.364,99.163 525.809,98.999 526.146,98.848L526.348,99.753Z" style="fill:rgb(221,62,98);fill-rule:nonzero;"/>
        <path d="M530.489,99.986L530.489,93.354L531.675,93.354L531.675,99.986L530.489,99.986ZM531.81,91.49C531.81,91.901 531.527,92.23 531.056,92.23C530.624,92.23 530.341,91.901 530.341,91.49C530.341,91.079 530.638,90.736 531.082,90.736C531.514,90.736 531.81,91.066 531.81,91.49Z" style="fill:rgb(221,62,98);fill-rule:nonzero;"/>
        <path d="M540.53,96.026C540.544,95.272 540.22,94.08 538.887,94.08C537.674,94.08 537.162,95.19 537.067,96.026L540.53,96.026ZM537.054,96.889C537.081,98.519 538.092,99.191 539.29,99.191C540.14,99.191 540.665,99.04 541.096,98.848L541.312,99.712C540.894,99.903 540.166,100.136 539.129,100.136C537.121,100.136 535.922,98.779 535.922,96.779C535.922,94.778 537.081,93.216 538.981,93.216C541.123,93.216 541.676,95.108 541.676,96.327C541.676,96.573 541.662,96.752 541.635,96.889L537.054,96.889Z" style="fill:rgb(221,62,98);fill-rule:nonzero;"/>
        <path d="M545.898,95.149C545.898,94.45 545.884,93.902 545.844,93.354L546.895,93.354L546.962,94.45L546.989,94.45C547.313,93.833 548.066,93.216 549.145,93.216C550.048,93.216 551.448,93.765 551.448,96.039L551.448,99.986L550.263,99.986L550.263,96.163C550.263,95.094 549.872,94.203 548.754,94.203C547.986,94.203 547.38,94.765 547.164,95.436C547.11,95.587 547.083,95.793 547.083,95.998L547.083,99.986L545.898,99.986L545.898,95.149Z" style="fill:rgb(221,62,98);fill-rule:nonzero;"/>
        <path d="M560.777,99.753C560.468,99.903 559.78,100.136 558.904,100.136C556.938,100.136 555.657,98.779 555.657,96.752C555.657,94.71 557.032,93.216 559.16,93.216C559.861,93.216 560.482,93.395 560.805,93.573L560.535,94.491C560.252,94.34 559.808,94.176 559.16,94.176C557.665,94.176 556.857,95.313 556.857,96.683C556.857,98.218 557.827,99.163 559.12,99.163C559.794,99.163 560.238,98.999 560.575,98.848L560.777,99.753Z" style="fill:rgb(221,62,98);fill-rule:nonzero;"/>
        <path d="M568.975,96.026C568.988,95.272 568.664,94.08 567.331,94.08C566.118,94.08 565.607,95.19 565.512,96.026L568.975,96.026ZM565.498,96.889C565.525,98.519 566.536,99.191 567.735,99.191C568.584,99.191 569.109,99.04 569.54,98.848L569.756,99.712C569.338,99.903 568.61,100.136 567.573,100.136C565.565,100.136 564.366,98.779 564.366,96.779C564.366,94.778 565.525,93.216 567.425,93.216C569.567,93.216 570.12,95.108 570.12,96.327C570.12,96.573 570.107,96.752 570.079,96.889L565.498,96.889Z" style="fill:rgb(221,62,98);fill-rule:nonzero;"/>
        <path d="M574.181,98.766C574.544,98.986 575.164,99.232 575.757,99.232C576.606,99.232 577.01,98.807 577.01,98.245C577.01,97.67 576.673,97.368 575.811,97.04C574.625,96.601 574.072,95.957 574.072,95.162C574.072,94.093 574.935,93.216 576.322,93.216C576.982,93.216 577.563,93.395 577.912,93.628L577.63,94.505C577.373,94.34 576.902,94.107 576.296,94.107C575.595,94.107 575.218,94.518 575.218,95.011C575.218,95.56 575.595,95.806 576.443,96.149C577.563,96.573 578.155,97.149 578.155,98.136C578.155,99.315 577.252,100.136 575.73,100.136C575.016,100.136 574.356,99.945 573.898,99.671L574.181,98.766Z" style="fill:rgb(221,62,98);fill-rule:nonzero;"/>
        <rect x="0" y="0.268" width="101.679" height="101.679" style="fill:rgb(221,62,98);fill-rule:nonzero;"/>
        <path d="M38.09,48.09C43.728,47.841 44.308,44.856 44.391,42.369C44.391,40.38 44.142,38.141 43.977,35.903C43.728,33.665 43.479,31.427 43.479,29.354C43.479,21.561 48.37,18.162 56.08,18.162L58.982,18.162L58.982,25.209L57.489,25.209C53.759,25.292 52.433,27.447 52.433,31.095C52.433,32.587 52.598,34.079 52.847,35.82C53.013,37.478 53.261,39.385 53.261,41.54C53.344,47.758 50.775,50.162 46.132,51.157L46.132,51.323C50.775,52.234 53.344,54.639 53.261,60.939C53.261,63.095 53.013,65.001 52.847,66.742C52.598,68.4 52.433,69.975 52.433,71.385C52.433,75.032 53.676,77.27 57.489,77.353L58.982,77.353L58.982,84.317L55.997,84.317C48.619,84.317 43.479,81.333 43.479,73.043C43.479,70.971 43.728,68.732 43.977,66.494C44.142,64.255 44.391,62.099 44.391,60.027C44.391,57.706 43.811,54.639 38.09,54.39L38.09,48.09Z" style="fill:white;fill-rule:nonzero;"/>
    </g>
</svg>
